PathFileType	4	(X/Y/Z)	 s07c0102.trc
DataRate	CameraRate	NumFrames	NumMarkers	Units	OrigDataRate	OrigDataStartFrame	OrigNumFrames
200	200	7	48	mm	200	1251	2000
Frame#	Time	racr			lacr			c7			jug			rlel			rdr			llel			ldr			s2			lic			ric			lasi			rasi			rpsi			lpsi			rgt			lgt			rth1			rth2			rth3			rth4			rlfc			rmfc			rsh1			rsh2			rsh3			rsh4			rlmal			rcal			rtoe			rmt5			lth1			lth2			lth4			lth3			llfc			lmfc			lsh1			lsh2			lsh3			lsh4			llmal			lcal			ltoe			lmt5			SBIKE			LBIKE			RBIKE			
		X1	Y1	Z1	X2	Y2	Z2	X3	Y3	Z3	X4	Y4	Z4	X5	Y5	Z5	X6	Y6	Z6	X7	Y7	Z7	X8	Y8	Z8	X9	Y9	Z9	X10	Y10	Z10	X11	Y11	Z11	X12	Y12	Z12	X13	Y13	Z13	X14	Y14	Z14	X15	Y15	Z15	X16	Y16	Z16	X17	Y17	Z17	X18	Y18	Z18	X19	Y19	Z19	X20	Y20	Z20	X21	Y21	Z21	X22	Y22	Z22	X23	Y23	Z23	X24	Y24	Z24	X25	Y25	Z25	X26	Y26	Z26	X27	Y27	Z27	X28	Y28	Z28	X29	Y29	Z29	X30	Y30	Z30	X31	Y31	Z31	X32	Y32	Z32	X33	Y33	Z33	X34	Y34	Z34	X35	Y35	Z35	X36	Y36	Z36	X37	Y37	Z37	X38	Y38	Z38	X39	Y39	Z39	X40	Y40	Z40	X41	Y41	Z41	X42	Y42	Z42	X43	Y43	Z43	X44	Y44	Z44	X45	Y45	Z45	X46	Y46	Z46	X47	Y47	Z47	X48	Y48	Z48	
1251	6.2550	476.732284	1408.780128	-55.310684	519.759529	1377.148082	-286.004481	461.898682	1439.562236	-185.368999	425.605647	1292.284290	-176.038441	511.625841	1090.774859	80.957143	720.172794	914.987193	-39.607527	529.456660	1107.389396	-516.617853	725.202242	917.633156	-407.216354	-123.282950	1218.024535	-271.908188	54.569356	1264.606268	-394.315130	19.413001	1279.306285	-105.568485	79.576946	1191.136655	-365.242686	42.102652	1226.698681	-119.043423	-104.042031	1262.508206	-223.731833	-79.578247	1266.269905	-326.567898	-22.787610	1147.692406	-64.346454	4.015645	1107.374871	-422.785880	120.432367	1062.313953	-62.886040	200.685732	1028.947385	-76.765234	255.164956	963.237966	-79.154661	219.210725	1057.010093	-94.416782	349.376320	864.124911	-112.955876	336.088688	843.328424	-214.872644	304.491384	727.897864	-80.138832	296.567224	639.912448	-94.178321	263.512317	568.205518	-79.412676	311.251934	637.183432	-132.244184	204.615149	433.062597	-77.132313	143.824307	380.172323	-102.158755	431.811685	417.154285	-119.981230	363.316573	368.850357	-48.565110	85.048563	1017.575339	-416.225445	161.641036	974.912429	-408.820548	185.153091	999.443987	-397.112686	207.348290	898.527240	-402.083933	305.087047	752.989514	-371.450844	285.679805	736.276559	-272.859317	206.239219	641.193946	-394.180415	168.093747	565.332501	-378.455747	95.275692	513.442625	-388.268733	171.671612	564.768477	-336.409599	1.450732	418.236315	-391.758295	-77.092398	428.263080	-357.853645	131.609232	227.058919	-355.347963	57.494046	262.127453	-416.638449	-259.397559	973.023133	-234.474248	-75.841386	83.344812	-438.474897	-82.776873	79.309597	-41.038406	
1252	6.2600	477.659343	1408.297200	-55.794272	519.512765	1379.635491	-287.614039	461.881139	1439.946523	-186.280983	427.378503	1292.178156	-177.817398	511.263064	1089.850808	81.934501	719.764429	914.733004	-39.547296	527.862211	1106.708542	-514.909410	725.133039	917.162722	-406.477859	-123.228646	1215.926107	-270.513511	54.610355	1263.086953	-392.381623	20.543407	1275.939865	-103.983617	79.573962	1189.614278	-363.569549	42.111548	1223.095094	-117.090221	-104.544672	1260.465966	-219.900450	-79.741022	1264.395776	-324.933213	-23.806229	1142.735015	-63.028305	4.892085	1106.417191	-422.242635	117.797549	1052.484329	-61.472173	197.274706	1016.605359	-74.906197	249.325085	949.189973	-78.338570	217.105734	1045.247540	-90.278157	341.710633	849.753202	-111.430566	328.869170	828.961580	-213.962015	300.601047	713.710420	-79.118438	293.962580	625.761431	-94.247742	251.973095	550.599773	-84.857945	307.867799	623.898829	-132.596021	205.957239	416.182835	-77.013934	145.345878	362.743836	-101.406809	432.444025	408.190323	-119.691525	365.311812	357.574351	-48.555126	87.378045	1018.313770	-415.646190	164.915441	977.332503	-408.506132	187.987804	1002.296527	-397.000843	212.270808	901.890473	-401.854222	312.278454	757.944785	-371.075493	292.835818	740.166602	-272.405015	210.975128	647.890458	-393.893616	171.284983	572.755389	-378.445024	96.952299	522.505745	-387.836256	175.261360	571.746383	-336.444088	1.648051	429.502742	-391.689977	-76.545308	440.781431	-357.757114	128.626232	235.956921	-355.452974	55.094158	271.927911	-416.690911	-259.103187	973.036423	-234.417256	-75.808106	83.333704	-438.460585	-82.737773	79.284083	-41.025280	
1253	6.2650	478.549820	1408.058133	-56.278399	518.915871	1382.322984	-289.370841	461.573117	1440.647140	-187.240588	428.900528	1292.407012	-179.661774	511.341225	1089.300443	82.671604	719.391031	914.542981	-39.431752	526.660635	1106.326473	-513.423955	725.098065	916.841849	-405.915091	-123.241635	1213.887115	-268.957620	54.688681	1261.723590	-390.539040	21.744566	1272.455381	-102.392152	79.473779	1188.101251	-361.836834	42.195381	1219.366738	-115.155615	-104.646671	1258.006309	-217.934034	-80.052976	1262.531440	-322.920997	-24.457120	1137.764132	-61.928910	5.813798	1105.469780	-421.640562	115.336219	1043.147819	-60.390286	193.576473	1004.841563	-73.387012	243.133442	935.745105	-77.678468	214.865899	1033.088819	-87.547347	334.953707	837.311459	-110.248685	320.972496	814.526031	-210.828505	296.324674	701.052376	-78.044930	276.124088	601.773819	-74.912220	250.265326	537.106675	-84.054669	304.305838	611.583136	-132.315223	206.787610	400.276899	-76.610334	146.406628	345.622044	-101.362946	432.467623	399.053660	-119.743452	366.763323	346.583270	-48.689904	89.620180	1018.799206	-415.275704	168.075051	979.510765	-408.483394	190.429645	1004.941871	-396.922636	217.143289	905.143580	-402.007899	319.310583	762.949463	-370.641354	300.668861	744.218795	-272.580259	215.751937	654.653357	-393.574195	174.438843	580.351404	-378.338804	99.123614	532.151158	-387.971933	178.788194	578.621850	-336.410017	2.025252	440.748394	-391.558532	-75.911441	452.904392	-357.549662	126.302737	245.206283	-355.501594	53.282530	281.967165	-416.723615	-258.914981	973.047886	-234.345759	-75.776526	83.322557	-438.451174	-84.675755	81.702405	-39.475505	
1254	6.2700	479.049001	1407.849918	-56.803646	519.563076	1386.655266	-296.439955	460.903806	1441.876435	-188.138502	431.841448	1292.796756	-182.374961	511.665794	1089.132348	83.287178	719.138999	914.448388	-39.138268	525.915942	1106.328039	-512.119722	725.130264	916.579712	-405.470709	-123.165065	1211.685224	-267.258129	54.574450	1260.426719	-388.518175	22.842420	1269.052226	-100.793434	79.544416	1186.796999	-360.290131	42.460077	1215.793051	-113.214110	-104.789344	1255.638023	-215.680327	-80.208198	1260.500703	-321.072579	-24.998066	1133.562210	-60.486233	6.565978	1104.518176	-420.875583	113.029452	1034.769989	-59.329685	189.882942	993.971703	-72.277021	237.142376	923.166217	-77.092413	212.347783	1021.750454	-85.368196	328.758857	825.630555	-109.659389	314.444299	803.898763	-210.283271	291.729295	689.015286	-77.286195	287.770162	600.179334	-94.241345	247.884544	524.526536	-82.951536	299.938100	599.748896	-131.973889	206.681507	386.033872	-75.776318	147.431323	330.344014	-100.574507	432.209670	389.492899	-119.658444	367.766115	335.839203	-48.655110	91.636134	1019.062825	-415.249727	171.069137	981.636090	-408.713426	192.916339	1007.513270	-396.924927	221.844425	908.392214	-402.797878	326.047515	768.095236	-370.184501	307.410372	748.920456	-271.840061	220.561132	661.562897	-393.231357	177.736214	588.104117	-378.165191	101.223203	541.250722	-387.368549	181.986799	585.778640	-336.427354	2.658351	451.937157	-391.554082	-74.826025	464.701457	-357.406917	124.713236	254.709555	-355.568207	52.074656	292.174220	-416.736210	-258.894741	973.039658	-234.301598	-75.754466	83.310100	-438.450798	-82.729588	79.256601	-40.992519	
1255	6.2750	479.795024	1407.607696	-57.522955	519.891632	1390.786790	-302.388833	459.950697	1443.486483	-189.082583	434.151616	1293.732128	-185.456472	512.153298	1089.260137	83.931162	719.135338	914.426583	-38.731262	525.589394	1106.709585	-511.054105	725.228522	916.531425	-405.117393	-123.175820	1209.657478	-265.590512	54.453027	1259.251584	-386.391265	23.834688	1265.676008	-99.169137	79.342170	1185.451128	-358.264018	42.795970	1212.849610	-111.248183	-104.924841	1253.275899	-213.336574	-80.320024	1258.519145	-319.104591	-25.042926	1129.671770	-59.108100	7.300476	1103.618877	-420.055407	111.140940	1027.232637	-58.533463	186.707009	984.186483	-71.055143	231.744083	912.122575	-76.658833	210.381460	1010.268226	-84.946879	322.365661	814.295396	-109.046741	305.458572	791.526497	-210.496925	286.602053	677.723923	-76.504625	286.000482	589.302649	-92.300756	244.937390	512.626377	-81.799812	295.330632	588.588087	-131.584168	205.895731	373.327162	-74.706217	147.764137	316.317502	-99.788075	431.455065	379.705466	-119.348980	368.171124	324.897305	-48.559459	93.447862	1019.283347	-415.358830	173.971936	983.609086	-409.102987	195.017896	1010.075796	-396.818733	226.276049	911.614492	-403.728444	332.426588	773.191164	-369.554037	314.146695	753.772503	-271.370357	225.292359	668.652076	-392.745941	181.333176	595.904946	-377.865888	103.810262	550.515488	-386.959065	186.766870	593.317978	-336.066911	3.964113	462.609788	-391.306811	-73.481473	476.356802	-356.947101	123.745043	264.261655	-355.656193	51.479120	302.484978	-416.733213	-258.981359	973.050048	-234.184665	-75.779749	83.296041	-438.436249	-82.737190	79.223754	-40.986098	
1256	6.2800	480.333460	1407.858439	-58.065584	518.411972	1393.703570	-305.043110	458.785364	1445.383538	-190.093657	433.806863	1295.454460	-187.863709	512.785372	1089.514478	84.399450	719.365679	914.397266	-38.404438	525.630402	1107.560285	-510.155965	725.570666	916.616855	-404.822427	-123.129676	1207.682470	-263.824159	54.057191	1258.349521	-384.406215	24.784408	1262.585548	-97.610915	79.134223	1184.413309	-356.657617	43.387452	1209.993522	-109.517088	-105.019856	1251.013804	-210.950336	-80.599985	1256.678596	-317.128176	-24.855022	1126.237137	-57.680112	7.972811	1102.794600	-419.227410	109.467832	1020.835385	-57.268120	183.887231	976.003937	-70.148307	227.227911	902.723160	-76.146428	207.865044	1001.734900	-83.958795	315.826423	803.761985	-108.558285	298.918284	781.426924	-209.719808	281.488764	666.661730	-75.806324	281.207831	578.083395	-91.666755	241.994921	501.098169	-80.801434	291.710868	577.664896	-130.577783	204.684583	361.170930	-73.924135	147.959987	303.093144	-99.565779	430.763299	369.621536	-119.872577	367.960911	313.935195	-48.595928	95.027502	1019.519735	-415.615132	176.369388	985.643625	-409.650110	196.797839	1012.475190	-396.892575	230.383531	914.716382	-404.717883	338.691395	778.497654	-368.933773	322.787300	758.125565	-270.990501	230.238329	675.680723	-392.125756	185.032903	603.564712	-377.435979	106.817141	559.473230	-386.391704	190.323267	600.511315	-335.680297	5.771789	473.214812	-391.079564	-71.854741	488.003994	-356.856045	123.485006	273.882723	-355.633557	51.498418	312.847778	-416.722389	-259.113542	973.090932	-234.007581	-75.781018	83.317177	-438.417898	-82.756610	79.200926	-40.978634	
1257	6.2850	480.724837	1408.248507	-58.589468	516.624034	1396.472078	-307.393755	457.454613	1447.488040	-191.091901	432.820398	1297.479583	-190.218083	513.592134	1089.947745	84.758952	719.710289	914.397697	-38.190629	526.154750	1108.715183	-509.251571	725.940312	916.760023	-404.642958	-123.146794	1205.864935	-261.922356	53.474482	1257.699611	-382.453453	25.847243	1259.788949	-96.144522	78.847364	1183.694806	-354.803307	44.064489	1207.678541	-107.688750	-104.960654	1248.876970	-208.587365	-80.975848	1255.002288	-315.758642	-24.386635	1123.248151	-56.241503	8.574376	1101.889117	-417.996394	108.141299	1015.708091	-56.057976	181.347121	969.193020	-69.267350	223.046414	894.890321	-75.596915	205.820470	994.343120	-83.534262	309.023945	793.923630	-108.279595	289.560968	772.147046	-210.138864	276.248071	656.258835	-75.167734	277.193079	567.841251	-90.814304	239.095246	490.479274	-80.175812	287.849859	567.386690	-129.728062	203.416578	349.395045	-73.583591	147.327813	291.289892	-99.228188	429.790669	359.381154	-120.103353	367.366229	303.458667	-48.786447	96.354717	1019.940715	-415.793889	178.416960	987.759898	-410.140703	198.247096	1014.821032	-396.879352	233.916545	917.789033	-405.436276	344.506653	784.044425	-368.553749	327.164541	764.391743	-270.207111	235.064619	682.783213	-391.443594	188.913016	611.108133	-376.882581	110.213632	568.504145	-386.105487	193.798066	608.187283	-334.732034	7.745457	483.541548	-390.236412	-69.817874	499.523634	-356.567404	123.806851	283.670935	-355.675529	52.134686	323.217015	-416.711964	-259.245422	973.137328	-233.712875	-75.795795	83.341183	-438.403936	-82.742555	79.177472	-40.959482	
